# xmcd
#
# Track frame offsets:
#	150
#	12790
#	27887
#	43315
#	57540
#	72555
#	87732
#	101365
#	115320
#	126755
#	141757
#	153867
#	166787
#	182175
#
# Disc length: 2581 seconds
#
# Revision: 0
# Processed by: cddbd v1.5.2PL0 Copyright (c) Steve Scherf et al.
# Submitted via: EasyCDDAExtractor 16.0.6.1
#
DISCID=c10a130e
DTITLE=Συλλογικός δίσκος - Τα πρώτα χασαποσέρβικα
DYEAR=1990
DGENRE=Λαϊκή
TTITLE0=Άνευ ερμηνευτού - Χασαποσέρβικα [Λατ. Ν. Αρμάος, διασκ. Θ.Δερβενιώτη-Π
TTITLE0=Πετσά]
TTITLE1=Τσιτσάνης Βασίλης-Λαμπράκη Χαρούλα - Απόψε στις ακρογιαλιές [Β. Τσιτσά
TTITLE1=νη]
TTITLE2=Γκρέϋ Καίτη-Τσιτσάνης Β.-Ρεπάνης Α. - Για τα μάτια π' αγαπώ [Β. Τσιτσά
TTITLE2=νη]
TTITLE3=Γκολές Μπάμπης - Ο καροτσέρης [διασκ. Μ. Γκολέ]
TTITLE4=Μενιδιάτης Μιχάλης - Τι τα θες αυτά Μιχάλη
TTITLE5=Μητσιάς Μανώλης - Περσεφόνη μου γλυκειά [Π. Τούντα]
TTITLE6=Άνευ ερμηνευτού - Τα ωραία του Τσιτσάνη [Β. Τσιτσάνη]
TTITLE7=Άνευ ερμηνευτού - Σέρβικος χορός [Γ. Παπαϊωάννου]
TTITLE8=Ζαμπέτας Γιώργος-χορωδία - Ο μαθητής [Γ. Ζαμπέτα]
TTITLE9=Τσιτσάνης Βασίλης-Λαμπράκη Χ.-Δροσινός Γ. - Η γυναίκα όταν φύγει [Β. Τ
TTITLE9=σιτσάνη]
TTITLE10=Μυτιληναίος Λ.-Ροζάκη Σ.-χορωδία - Πάμε στις ακρογιαλιές [Α. Κατινάρη
TTITLE10=Ε. Παπαγιαννοπούλου]
TTITLE11=Λαμπράκη Χαρούλα - Αν δείτε τα μάτια π' αγαπώ [Ν. Δαλέζιου]
TTITLE12=Νίνου Μαρίκα-Τσιτσάνης Β.-Τσαουσάκης Π. - Είμαστε αλάνια [Β. Τσιτσάνη
TTITLE12=]
TTITLE13=Άνευ ερμηνευτού - Χασαποσέρβικο [Θ. Δερβενιώτη]
EXTD=
EXTT0=
EXTT1=
EXTT2=
EXTT3=
EXTT4=
EXTT5=
EXTT6=
EXTT7=
EXTT8=
EXTT9=
EXTT10=
EXTT11=
EXTT12=
EXTT13=
PLAYORDER=
